<svg xmlns="http://www.w3.org/2000/svg" width="128" height="128" class="icon" viewBox="0 0 1024 1024"><path fill="#fff" d="M967.054 745.335q-1.482 2.897-2.997 5.763c-.307.58-.62 1.156-.929 1.734q-1.06 1.987-2.13 3.965c-.39.716-.787 1.428-1.18 2.141q-.972 1.763-1.952 3.519a304.71 304.71 0 0 1-1.299 2.286q-.949 1.671-1.907 3.336-.677 1.172-1.363 2.34-.951 1.624-1.913 3.245-.7 1.177-1.407 2.348-.967 1.605-1.945 3.202-.712 1.165-1.432 2.326-.994 1.599-1.998 3.197-.718 1.138-1.438 2.274-1.033 1.62-2.08 3.23-.708 1.1-1.42 2.187-1.092 1.669-2.198 3.327c-.452.68-.899 1.36-1.357 2.037q-1.2 1.786-2.423 3.558c-.4.584-.8 1.173-1.199 1.755q-1.468 2.121-2.957 4.224c-.245.346-.486.694-.73 1.04q-3.77 5.305-7.669 10.51c-.31.414-.626.825-.938 1.237q-1.473 1.955-2.96 3.897c-.413.536-.83 1.069-1.246 1.604q-1.354 1.747-2.721 3.486c-.459.581-.921 1.158-1.383 1.738q-1.321 1.66-2.653 3.31-.723.893-1.453 1.78-1.323 1.62-2.658 3.23-.737.887-1.48 1.77-1.346 1.61-2.71 3.206-.733.862-1.472 1.72-1.398 1.624-2.807 3.235c-.473.542-.948 1.085-1.424 1.624q-1.475 1.673-2.967 3.331c-.44.49-.877.98-1.317 1.468q-1.612 1.778-3.238 3.541l-1.1 1.2q-1.878 2.023-3.78 4.028c-.205.216-.407.435-.613.65q-6.807 7.159-13.886 14.054l-.366.352q-2.136 2.075-4.296 4.127c-.28.266-.562.53-.843.8q-1.934 1.828-3.885 3.637c-.352.326-.705.648-1.058.973q-1.863 1.715-3.742 3.415l-1.153 1.035q-1.855 1.665-3.726 3.313l-1.172 1.027q-1.894 1.654-3.797 3.29l-1.123.96q-1.974 1.683-3.964 3.345c-.33.276-.66.554-.992.828q-2.12 1.763-4.262 3.497l-.735.6q-2.397 1.938-4.812 3.85l-.227.18q-13.041 10.29-26.755 19.746l-.158.108q-2.613 1.798-5.251 3.567l-.47.314q-2.498 1.671-5.015 3.313l-.606.393q-2.474 1.609-4.968 3.19l-.621.392q-2.521 1.592-5.064 3.158l-.525.324q-2.647 1.624-5.314 3.217l-.292.175a509.962 509.962 0 0 1-53.52 27.773l-.107.048q-3.023 1.346-6.064 2.654l-.14.05a508.13 508.13 0 0 1-70.64 24.376 514.996 514.996 0 0 1-262.332 0 508.279 508.279 0 0 1-120.742-49.252 513.267 513.267 0 0 1-102.974-76.91l-.042-.04q-2.286-2.206-4.547-4.439l-.06-.06q-2.26-2.232-4.496-4.495l-.042-.042a513.614 513.614 0 0 1-74.797-96.423l-.035-.059q-1.642-2.734-3.25-5.494l-.048-.084q-1.607-2.758-3.18-5.535l-.037-.065q-1.587-2.802-3.139-5.626A509.193 509.193 0 0 1 .001 512.498C0 230.005 229.006 1 511.5 1s511.5 229.006 511.5 511.5a509.348 509.348 0 0 1-55.946 232.836zM511.5 61.175c-249.256 0-451.323 202.067-451.323 451.323a450.331 450.331 0 0 0 28.23 157.4c63.386 82.818 193.265 142.76 346.273 151.238a305.6 305.6 0 0 0 35.36 2.058q12.861 0 25.4-1.052 2.53.053 5.07.053c134.626 0 243.762-109.136 243.762-243.761a243.02 243.02 0 0 0-77.343-178.05 150.57 150.57 0 0 0-27.854-23.713 146.21 146.21 0 0 0-18.304-10.27c-.578-.327-1.144-.674-1.724-.999 0 .063.007.127.01.191-49.6-22.54-102.487-11.633-124.794 28.648-16.284 29.41-12.288 67.305 7.133 100.214-.8.015-1.584.06-2.382.06a120.373 120.373 0 0 1-88.813-201.635c-.01-.132-.015-.267-.025-.4.8-.712 1.612-1.405 2.417-2.108a120.813 120.813 0 0 1 24.98-19.759 316.654 316.654 0 0 1 184.319-58.82c2.255 0 4.496.039 6.743.085a336.6 336.6 0 0 1 6.744-.085c171.932 0 313.006 132.02 327.437 300.214C962.551 262.975 760.594 61.175 511.5 61.175z"/></svg>